<mxfile host="app.diagrams.net" modified="2023-11-13T20:30:01.020Z" agent="Mozilla/5.0 (Windows NT 10.0; Win64; x64) AppleWebKit/537.36 (KHTML, like Gecko) Chrome/119.0.0.0 Safari/537.36" etag="c7-xKoOWJKr8UpdVr6OE" version="22.1.0" type="github">
  <diagram name="Page-1" id="edf60f1a-56cd-e834-aa8a-f176f3a09ee4">
    <mxGraphModel dx="1195" dy="622" grid="1" gridSize="10" guides="1" tooltips="1" connect="1" arrows="1" fold="1" page="1" pageScale="1" pageWidth="1100" pageHeight="850" background="none" math="0" shadow="0">
      <root>
        <mxCell id="0" />
        <mxCell id="1" parent="0" />
        <mxCell id="60e70716793133e9-30" value="End" style="strokeWidth=1;html=1;shape=mxgraph.flowchart.terminator;whiteSpace=wrap;rounded=0;shadow=1;labelBackgroundColor=none;fontFamily=Verdana;fontSize=8;align=center;" parent="1" vertex="1">
          <mxGeometry x="920" y="460" width="60" height="30" as="geometry" />
        </mxCell>
        <mxCell id="8rRLKgjnc-MGFpNel3iN-2" value="Start" style="strokeWidth=1;html=1;shape=mxgraph.flowchart.terminator;whiteSpace=wrap;rounded=0;shadow=1;labelBackgroundColor=none;fontFamily=Verdana;fontSize=8;align=center;" vertex="1" parent="1">
          <mxGeometry x="220" y="80" width="60" height="30" as="geometry" />
        </mxCell>
        <mxCell id="8rRLKgjnc-MGFpNel3iN-5" style="edgeStyle=orthogonalEdgeStyle;rounded=0;orthogonalLoop=1;jettySize=auto;html=1;exitX=0.5;exitY=1;exitDx=0;exitDy=0;exitPerimeter=0;entryX=0.576;entryY=-0.006;entryDx=0;entryDy=0;entryPerimeter=0;" edge="1" parent="1" source="8rRLKgjnc-MGFpNel3iN-2">
          <mxGeometry relative="1" as="geometry">
            <mxPoint x="249.12000000000012" y="139.64" as="targetPoint" />
          </mxGeometry>
        </mxCell>
        <mxCell id="8rRLKgjnc-MGFpNel3iN-33" style="edgeStyle=orthogonalEdgeStyle;rounded=0;orthogonalLoop=1;jettySize=auto;html=1;exitX=1;exitY=0.5;exitDx=0;exitDy=0;entryX=0;entryY=0.5;entryDx=0;entryDy=0;" edge="1" parent="1" source="8rRLKgjnc-MGFpNel3iN-8" target="8rRLKgjnc-MGFpNel3iN-26">
          <mxGeometry relative="1" as="geometry" />
        </mxCell>
        <mxCell id="8rRLKgjnc-MGFpNel3iN-8" value="Telebot fetches location data to Google Sheets" style="rounded=0;whiteSpace=wrap;html=1;shadow=1;labelBackgroundColor=none;strokeWidth=1;fontFamily=Verdana;fontSize=8;align=center;" vertex="1" parent="1">
          <mxGeometry x="370" y="140" width="120" height="60" as="geometry" />
        </mxCell>
        <mxCell id="8rRLKgjnc-MGFpNel3iN-32" style="edgeStyle=orthogonalEdgeStyle;rounded=0;orthogonalLoop=1;jettySize=auto;html=1;exitX=1;exitY=0.5;exitDx=0;exitDy=0;entryX=0;entryY=0.5;entryDx=0;entryDy=0;" edge="1" parent="1" source="8rRLKgjnc-MGFpNel3iN-10" target="8rRLKgjnc-MGFpNel3iN-8">
          <mxGeometry relative="1" as="geometry" />
        </mxCell>
        <mxCell id="8rRLKgjnc-MGFpNel3iN-10" value="&lt;font style=&quot;font-size: 8px;&quot; face=&quot;Verdana&quot;&gt;User sends live location in Tele&lt;br&gt;&lt;/font&gt;" style="shape=parallelogram;perimeter=parallelogramPerimeter;whiteSpace=wrap;html=1;fixedSize=1;" vertex="1" parent="1">
          <mxGeometry x="200" y="140" width="120" height="60" as="geometry" />
        </mxCell>
        <mxCell id="8rRLKgjnc-MGFpNel3iN-37" style="edgeStyle=orthogonalEdgeStyle;rounded=0;orthogonalLoop=1;jettySize=auto;html=1;exitX=0.5;exitY=1;exitDx=0;exitDy=0;entryX=0.5;entryY=0;entryDx=0;entryDy=0;" edge="1" parent="1" source="8rRLKgjnc-MGFpNel3iN-14" target="8rRLKgjnc-MGFpNel3iN-30">
          <mxGeometry relative="1" as="geometry" />
        </mxCell>
        <mxCell id="8rRLKgjnc-MGFpNel3iN-14" value="App script formulates total pay" style="rounded=0;whiteSpace=wrap;html=1;shadow=1;labelBackgroundColor=none;strokeWidth=1;fontFamily=Verdana;fontSize=8;align=center;" vertex="1" parent="1">
          <mxGeometry x="890" y="140" width="120" height="60" as="geometry" />
        </mxCell>
        <mxCell id="8rRLKgjnc-MGFpNel3iN-36" style="edgeStyle=orthogonalEdgeStyle;rounded=0;orthogonalLoop=1;jettySize=auto;html=1;exitX=1;exitY=0.5;exitDx=0;exitDy=0;entryX=0;entryY=0.5;entryDx=0;entryDy=0;" edge="1" parent="1" source="8rRLKgjnc-MGFpNel3iN-18" target="8rRLKgjnc-MGFpNel3iN-14">
          <mxGeometry relative="1" as="geometry" />
        </mxCell>
        <mxCell id="8rRLKgjnc-MGFpNel3iN-18" value="&lt;font style=&quot;font-size: 8px;&quot; face=&quot;Verdana&quot;&gt;Admin runs formula to calculate total pay&lt;br&gt;&lt;/font&gt;" style="shape=parallelogram;perimeter=parallelogramPerimeter;whiteSpace=wrap;html=1;fixedSize=1;" vertex="1" parent="1">
          <mxGeometry x="730" y="140" width="120" height="60" as="geometry" />
        </mxCell>
        <mxCell id="8rRLKgjnc-MGFpNel3iN-35" style="edgeStyle=orthogonalEdgeStyle;rounded=0;orthogonalLoop=1;jettySize=auto;html=1;exitX=1;exitY=0.5;exitDx=0;exitDy=0;entryX=0;entryY=0.5;entryDx=0;entryDy=0;" edge="1" parent="1" source="8rRLKgjnc-MGFpNel3iN-26" target="8rRLKgjnc-MGFpNel3iN-18">
          <mxGeometry relative="1" as="geometry" />
        </mxCell>
        <mxCell id="8rRLKgjnc-MGFpNel3iN-26" value="App script formulates OT pay" style="rounded=0;whiteSpace=wrap;html=1;shadow=1;labelBackgroundColor=none;strokeWidth=1;fontFamily=Verdana;fontSize=8;align=center;" vertex="1" parent="1">
          <mxGeometry x="550" y="140" width="120" height="60" as="geometry" />
        </mxCell>
        <mxCell id="8rRLKgjnc-MGFpNel3iN-41" style="edgeStyle=orthogonalEdgeStyle;rounded=0;orthogonalLoop=1;jettySize=auto;html=1;exitX=0;exitY=0.5;exitDx=0;exitDy=0;entryX=0.5;entryY=0;entryDx=0;entryDy=0;" edge="1" parent="1" source="8rRLKgjnc-MGFpNel3iN-30" target="8rRLKgjnc-MGFpNel3iN-40">
          <mxGeometry relative="1" as="geometry" />
        </mxCell>
        <mxCell id="8rRLKgjnc-MGFpNel3iN-42" style="edgeStyle=orthogonalEdgeStyle;rounded=0;orthogonalLoop=1;jettySize=auto;html=1;exitX=0.5;exitY=1;exitDx=0;exitDy=0;entryX=0.5;entryY=0;entryDx=0;entryDy=0;" edge="1" parent="1" source="8rRLKgjnc-MGFpNel3iN-30" target="8rRLKgjnc-MGFpNel3iN-38">
          <mxGeometry relative="1" as="geometry" />
        </mxCell>
        <mxCell id="8rRLKgjnc-MGFpNel3iN-30" value="&lt;font style=&quot;font-size: 8px;&quot; face=&quot;Verdana&quot;&gt;Admin generates&lt;br&gt;&amp;nbsp;payslips&lt;br&gt;&lt;/font&gt;" style="shape=parallelogram;perimeter=parallelogramPerimeter;whiteSpace=wrap;html=1;fixedSize=1;" vertex="1" parent="1">
          <mxGeometry x="890" y="240" width="120" height="60" as="geometry" />
        </mxCell>
        <mxCell id="8rRLKgjnc-MGFpNel3iN-38" value="App script sends payslips to users&#39; email accounts&amp;nbsp;" style="rounded=0;whiteSpace=wrap;html=1;shadow=1;labelBackgroundColor=none;strokeWidth=1;fontFamily=Verdana;fontSize=8;align=center;" vertex="1" parent="1">
          <mxGeometry x="890" y="340" width="120" height="60" as="geometry" />
        </mxCell>
        <mxCell id="8rRLKgjnc-MGFpNel3iN-45" style="edgeStyle=orthogonalEdgeStyle;rounded=0;orthogonalLoop=1;jettySize=auto;html=1;exitX=0.5;exitY=1;exitDx=0;exitDy=0;" edge="1" parent="1" source="8rRLKgjnc-MGFpNel3iN-40">
          <mxGeometry relative="1" as="geometry">
            <mxPoint x="950" y="460" as="targetPoint" />
          </mxGeometry>
        </mxCell>
        <mxCell id="8rRLKgjnc-MGFpNel3iN-40" value="&lt;font style=&quot;font-size: 8px;&quot; face=&quot;Verdana&quot;&gt;App script stores generated payslips to Drive&amp;nbsp;&lt;/font&gt;" style="shape=dataStorage;whiteSpace=wrap;html=1;fixedSize=1;align=center;" vertex="1" parent="1">
          <mxGeometry x="700" y="320" width="100" height="80" as="geometry" />
        </mxCell>
        <mxCell id="8rRLKgjnc-MGFpNel3iN-43" style="edgeStyle=orthogonalEdgeStyle;rounded=0;orthogonalLoop=1;jettySize=auto;html=1;exitX=0.5;exitY=1;exitDx=0;exitDy=0;entryX=0.5;entryY=0;entryDx=0;entryDy=0;entryPerimeter=0;" edge="1" parent="1" source="8rRLKgjnc-MGFpNel3iN-38" target="60e70716793133e9-30">
          <mxGeometry relative="1" as="geometry" />
        </mxCell>
      </root>
    </mxGraphModel>
  </diagram>
</mxfile>
